<svg width="25" height="25" viewBox="0 0 25 25" fill="none" xmlns="http://www.w3.org/2000/svg">
<path d="M12.5 25C5.60722 25 0 19.3928 0 12.5C0 5.60722 5.60722 0 12.5 0C19.3928 0 25 5.60722 25 12.5C25 19.3928 19.3928 25 12.5 25ZM12.5 1.5625C6.46877 1.5625 1.5625 6.46877 1.5625 12.5C1.5625 18.5312 6.46877 23.4375 12.5 23.4375C18.5312 23.4375 23.4375 18.5312 23.4375 12.5C23.4375 6.46877 18.5312 1.5625 12.5 1.5625Z" fill="#FF4F5B"/>
<path d="M17.9688 13.2812H7.03125C6.6 13.2812 6.25 12.9313 6.25 12.5C6.25 12.0687 6.6 11.7188 7.03125 11.7188H17.9688C18.4 11.7188 18.75 12.0687 18.75 12.5C18.75 12.9313 18.4 13.2812 17.9688 13.2812Z" fill="#FF4F5B"/>
<path d="M12.5 18.75C12.0687 18.75 11.7188 18.4 11.7188 17.9688V7.03125C11.7188 6.6 12.0687 6.25 12.5 6.25C12.9313 6.25 13.2812 6.6 13.2812 7.03125V17.9688C13.2812 18.4 12.9313 18.75 12.5 18.75Z" fill="#FF4F5B"/>
</svg>
